<?xml version="1.0" encoding="UTF-8"?>
<svg id="Layer_1" data-name="Layer 1" xmlns="http://www.w3.org/2000/svg" viewBox="0 0 23.16 30.84">
  <defs>
    <style>
      .cls-1 {
        fill: #0d3429;
      }

      .cls-2 {
        fill: #fabe4d;
      }
    </style>
  </defs>
  <path class="cls-1" d="M23.16,25.76v.13c-.32.24-.32-.37,0-.13Z"/>
  <polygon class="cls-2" points="9.59 6.89 10.91 6.32 11.6 0 12.25 6.32 13.57 6.9 13.57 8.01 12.32 7.55 12.32 8.12 14.87 9.29 14.87 10.49 12.36 9.31 12.36 15.58 10.82 15.58 10.85 9.33 8.4 10.49 8.4 9.09 10.85 8.11 10.85 7.55 9.59 8.01 9.59 6.89"/>
  <polygon class="cls-2" points="14.87 11.2 14.87 15.58 13.29 15.58 13.29 10.52 14.87 11.2"/>
  <polygon class="cls-2" points="9.88 10.52 9.88 15.58 8.38 15.58 8.41 11.23 9.88 10.52"/>
  <polygon class="cls-2" points="14.87 27.19 14.87 30.16 16.63 30.84 13.29 30.84 13.29 27.19 14.87 27.19"/>
  <polygon class="cls-2" points="9.88 27.19 9.88 30.84 6.54 30.84 8.4 30.12 8.4 27.19 9.88 27.19"/>
  <path class="cls-2" d="M12.39,30.84h-1.54v-3.65h1.51s.03.03.03.03v3.62Z"/>
  <path class="cls-1" d="M10.9,17.07c.08.01.13.08.16.15.28.52.48,1.22.74,1.77.01.03,0,.05.04.04l.77-1.85s.13-.11.16-.11h.55s.03.03.03.03v2.54h-.55v-1.67l-.66,1.51c-.09.1-.41.09-.54.08-.03,0-.06,0-.07-.04l-.68-1.59v1.72h-.53v-2.57c.17.02.42-.03.58,0Z"/>
  <path class="cls-1" d="M2.37,20.88s.14.06.16.1l.77,1.5v-1.61h.53v2.57h-.55l-.95-1.87v1.87h-.53v-2.57c.17.02.4-.03.56,0Z"/>
  <path class="cls-1" d="M10.78,21.76h-.47c-.07,0-.14-.18-.19-.23-.17-.18-.59-.18-.79-.04-.32.22-.33,1.07-.06,1.33s1.11.18.98-.35h-.55v-.48h1.17v.48s-.08,0-.09,0c0,0,0,.2,0,.25-.09.76-1.26.97-1.79.56-.58-.45-.61-1.68-.07-2.16.59-.51,1.85-.26,1.86.64Z"/>
  <path class="cls-1" d="M12.53,20.88c.33.03.59.18.68.51.15.54-.01.98-.51,1.24l.53.53c.07.03-.14.28-.16.29-.03.02-.2,0-.24,0l-1.1-1.09v1.1h-.53v-2.57c.43.03.91-.04,1.33,0ZM11.73,21.34v.34s.57.53.63.63c.08.06.16-.04.21-.1.15-.19.21-.51.09-.72-.03-.06-.14-.15-.21-.15h-.71Z"/>
  <path class="cls-1" d="M20.15,23.45v-2.57h1.13c.1,0,.35.1.44.16.64.4.64,1.77.06,2.23-.07.06-.32.19-.41.19h-1.22ZM20.68,22.99h.6c.06,0,.19-.11.23-.17.22-.3.22-1.18-.11-1.41-.03-.02-.16-.08-.19-.08h-.54v1.65Z"/>
  <path class="cls-1" d="M15.88,19.65h-.48l-.13-.49h-.97s-.13.49-.13.49h-.48c-.02-.15.02-.28.05-.42.16-.71.42-1.43.59-2.15.24.02.54-.03.78,0,.07,0,.13.04.16.1l.61,2.2v.27ZM14.62,18.68c.15-.03.36.02.52,0l-.31-1.13s-.09-.03-.1.01l-.37,1.33v.03c.08-.08.14-.22.25-.24Z"/>
  <path class="cls-1" d="M15.77,23.45h-.48l-.13-.49h-.97s-.13.49-.13.49h-.48c-.02-.15.02-.28.05-.42.16-.71.42-1.43.59-2.15.24.02.54-.03.78,0,.07,0,.13.04.16.1l.61,2.2v.27ZM14.51,22.48c.15-.03.36.02.52,0l-.31-1.13s-.09-.03-.1.01l-.37,1.33v.03c.08-.08.14-.22.25-.24Z"/>
  <path class="cls-1" d="M3.76,17.07v1.79s.04.11.05.13c.14.28.72.29.89.04.01-.02.06-.11.06-.12v-1.8s.03-.03.03-.03h.48s.03.03.03.03v1.72c0,1.01-1.72,1.16-2.02.28-.01-.03-.05-.15-.05-.17v-1.86h.53Z"/>
  <path class="cls-1" d="M19.93,17.07v.46h-1.17v.86s.05-.09.08-.13c.01-.02.1-.11.11-.11h.8v.43s-.03.03-.03.03h-.96v.57h1.17v.46h-1.69v-2.57h1.69Z"/>
  <path class="cls-1" d="M19.82,20.88v.46h-1.17v.86s.05-.09.08-.13c.01-.02.1-.11.11-.11h.8v.43s-.03.03-.03.03h-.96v.57h1.17v.46h-1.69v-2.57h1.69Z"/>
  <path class="cls-1" d="M8.21,20.88v.46h-1.17v.86s.05-.09.08-.13c.01-.02.1-.11.11-.11h.8v.43s-.03.03-.03.03h-.96v.57h1.17v.46h-1.69v-2.57h1.69Z"/>
  <polygon class="cls-1" points="17.82 21.34 17.05 21.34 17.05 23.45 16.52 23.45 16.52 21.37 16.49 21.34 15.75 21.34 15.75 20.88 17.79 20.88 17.82 20.91 17.82 21.34"/>
  <polygon class="cls-1" points="9.17 17.53 8.4 17.53 8.4 19.65 7.88 19.65 7.88 17.57 7.84 17.53 7.11 17.53 7.11 17.07 9.14 17.07 9.17 17.1 9.17 17.53"/>
  <polygon class="cls-1" points="6.21 21.34 5.44 21.34 5.44 23.45 4.91 23.45 4.91 21.37 4.87 21.34 4.14 21.34 4.14 20.88 6.17 20.88 6.21 20.91 6.21 21.34"/>
  <polygon class="cls-1" points="17.93 17.53 17.16 17.53 17.16 19.65 16.63 19.65 16.63 17.57 16.6 17.53 15.86 17.53 15.86 17.07 17.9 17.07 17.93 17.1 17.93 17.53"/>
  <polygon class="cls-1" points="6.14 17.07 6.14 19.18 7.31 19.18 7.31 19.65 5.61 19.65 5.61 17.07 6.14 17.07"/>
  <rect class="cls-1" x=".95" y="20.88" width=".53" height="2.57"/>
  <rect class="cls-1" x="9.48" y="17.07" width=".53" height="2.57"/>
  <path class="cls-1" d="M7.36,24.62c.47.05.49.61.18.88-.06.05-.15.03-.07.11.1.09.45.33.1.32l-.7-.65v.66h-.18v-1.32c.21.02.46-.02.67,0ZM7.34,24.77c-.14-.02-.33.02-.47,0v.28c.11.04.37.39.45.39.01,0,.08-.04.1-.05.19-.15.21-.58-.08-.63Z"/>
  <path class="cls-1" d="M12.97,24.62c.47.05.49.61.18.88-.06.05-.15.03-.07.11.1.09.45.33.1.32l-.7-.65v.66h-.18v-1.32c.21.02.46-.02.67,0ZM12.95,24.77c-.14-.02-.33.02-.47,0v.28c.11.04.37.39.45.39.01,0,.08-.04.1-.05.19-.15.21-.58-.08-.63Z"/>
  <path class="cls-1" d="M1.06,25.08c-.26.05-.14-.08-.25-.19-.2-.22-.75-.04-.59.18.11.15.77.09.85.36.19.61-.94.72-1.06.2-.03-.12-.02-.22.12-.14.05.02.05.12.08.16.15.26.84.12.67-.16-.13-.22-.91-.08-.88-.5.04-.52,1.1-.5,1.05.09Z"/>
  <path class="cls-1" d="M10.87,25.08c-.26.05-.14-.08-.25-.19-.2-.22-.75-.04-.59.18.11.15.77.09.85.36.19.61-.94.72-1.06.2-.03-.12-.02-.22.12-.14.05.02.05.12.08.16.15.26.84.12.67-.16-.13-.22-.91-.08-.88-.5.04-.52,1.1-.5,1.05.09Z"/>
  <path class="cls-1" d="M19.01,25.08c-.26.05-.14-.08-.25-.19-.2-.22-.75-.04-.59.18.11.15.77.09.85.36.19.61-.94.72-1.06.2-.03-.12-.02-.22.12-.14.05.02.05.12.08.16.15.26.84.12.67-.16-.13-.22-.91-.08-.88-.5.04-.52,1.1-.5,1.05.09Z"/>
  <path class="cls-1" d="M20.3,24.62c.09,0,.2,0,.26.08l.53.91v-.96s.14-.03.18-.03v1.32h-.17s-.62-1.1-.62-1.1v1.1h-.18v-1.32Z"/>
  <path class="cls-1" d="M2.84,25.28v.66h-.18v-1.32h.65s.17.04.22.07c.37.22.16,1.07-.28.94-.08-.02-.3-.32-.41-.35ZM2.84,24.77c.01.09-.02.23.01.31.01.03.47.41.51.41.06,0,.14-.14.15-.19.04-.17.01-.53-.22-.53h-.45Z"/>
  <path class="cls-1" d="M4.16,25.28v.66h-.18v-1.32h.65s.17.04.22.07c.37.22.16,1.07-.28.94-.08-.02-.3-.32-.41-.35ZM4.16,24.77c.01.09-.02.23.01.31.01.03.47.41.51.41.06,0,.14-.14.15-.19.04-.17.01-.53-.22-.53h-.45Z"/>
  <path class="cls-1" d="M5.76,24.62c.98-.14.84,1.65-.12,1.29-.5-.18-.47-1.21.12-1.29ZM5.74,24.8c-.34.06-.34.87-.03.97.23.07.45,0,.51-.25.09-.38,0-.81-.48-.72Z"/>
  <path class="cls-1" d="M2.22,24.62c.06,0,.16-.03.18.05-.04.29.08.86-.09,1.1-.16.23-.63.24-.83.06-.04-.03-.13-.18-.13-.22v-1c.05,0,.15-.02.17.04.03.29-.03.62,0,.9s.52.32.65.12c.01-.02.06-.13.06-.14v-.91Z"/>
  <path class="cls-1" d="M16.52,25.08c-.26.06-.15-.22-.37-.28-.35-.09-.52.11-.53.44s.13.64.52.53c.18-.05.2-.27.22-.27.04-.01.12,0,.16,0,.02.46-.64.61-.92.3-.23-.25-.22-.87.07-1.08.31-.22.88-.07.86.36Z"/>
  <path class="cls-1" d="M22.61,25.08c-.26.06-.15-.22-.37-.28-.35-.09-.52.11-.53.44s.13.64.52.53c.18-.05.2-.27.22-.27.04-.01.12,0,.16,0,.02.46-.64.61-.92.3-.23-.25-.22-.87.07-1.08.31-.22.88-.07.86.36Z"/>
  <path class="cls-1" d="M12.01,24.62v.15h-.68v.51s.05-.04.05-.04h.54v.13h-.59v.42h.68v.15h-.86v-1.32h.86Z"/>
  <path class="cls-1" d="M17.66,24.62v.15h-.68v.51s.05-.04.05-.04h.54v.13h-.59v.42h.68v.15h-.86v-1.32h.86Z"/>
  <path class="cls-1" d="M14.15,25.78s.06,0,.06,0c.05-.03.3-1,.38-1.13.03-.05.1-.03.15-.03v.16s-.38,1.14-.38,1.14c-.11.03-.31.07-.36-.05-.09-.2-.32-.88-.36-1.09-.01-.05-.01-.1,0-.16.06,0,.13-.02.16.05l.37,1.12Z"/>
  <path class="cls-1" d="M9,24.77h-.44v1.17h-.18v-1.17h-.44v-.15h1.02s.04.12.03.15Z"/>
  <rect class="cls-1" x="19.86" y="24.62" width=".18" height="1.32"/>
  <rect class="cls-1" x="15" y="24.62" width=".18" height="1.32"/>
</svg>